<svg xmlns="http://www.w3.org/2000/svg" viewBox="0 0 128 128">
  <rect x="4" y="4" width="120" height="120" rx="18" fill="#F4EAD7" stroke="#D8C7A8" stroke-width="2"/>
  <polygon points="64,118 18,98 64,78 110,98" fill="#E3D6BC"/>
  <ellipse cx="64" cy="100" rx="38" ry="11" fill="#000000" opacity="0.07"/>
  <polygon points="34,48 64,60 64,102 34,90" fill="#9BB8C9" stroke="#2B3A4A" stroke-width="3" stroke-linejoin="round"/>
  <polygon points="64,60 94,48 94,90 64,102" fill="#C7DCE8" stroke="#2B3A4A" stroke-width="3" stroke-linejoin="round"/>
  <polygon points="64,36 94,48 64,60 34,48" fill="#EAF3F8" stroke="#2B3A4A" stroke-width="3" stroke-linejoin="round"/>
  <rect x="50" y="60" width="12" height="14" rx="1.5" fill="#BFE3F0" stroke="#2B3A4A" stroke-width="2"/>
  <circle cx="64" cy="36" r="11" fill="#7FD1C8" stroke="#2B3A4A" stroke-width="2.5"/>
  <path d="M61 33 v-5 h6 v5 l3 6 a4 4 0 0 1 -4 4 h-4 a4 4 0 0 1 -4 -4 z" fill="#FFFFFF" stroke="#2B3A4A" stroke-width="1.5"/>
  <rect x="60" y="27" width="8" height="2" fill="#2B3A4A"/>

</svg>