<svg xmlns="http://www.w3.org/2000/svg" viewBox="0 0 128 128">
  <rect x="4" y="4" width="120" height="120" rx="18" fill="#F4EAD7" stroke="#D8C7A8" stroke-width="2"/>
  <polygon points="64,118 18,98 64,78 110,98" fill="#E3D6BC"/>
  <ellipse cx="64" cy="100" rx="38" ry="11" fill="#000000" opacity="0.07"/>
  <path d="M30 40 A34 13 0 0 0 64 53 V103 A34 13 0 0 1 30 90 Z" fill="#6E7E8C" stroke="#2B3A4A" stroke-width="3" stroke-linejoin="round"/>
  <path d="M98 40 A34 13 0 0 1 64 53 V103 A34 13 0 0 0 98 90 Z" fill="#AEBBC6" stroke="#2B3A4A" stroke-width="3" stroke-linejoin="round"/>
  <ellipse cx="64" cy="40" rx="34" ry="13" fill="#C9D3DB" stroke="#2B3A4A" stroke-width="3"/>
  <path d="M30 72 A34 13 0 0 0 64 85 V92 A34 13 0 0 1 30 79 Z" fill="#C96A1F" opacity="0.95"/>
  <path d="M98 72 A34 13 0 0 1 64 85 V92 A34 13 0 0 0 98 79 Z" fill="#F2A05E" opacity="0.95"/>
  <rect x="98" y="48" width="14" height="10" rx="2" fill="#9AAAB8" stroke="#2B3A4A" stroke-width="2"/>

</svg>