<svg xmlns="http://www.w3.org/2000/svg" viewBox="0 0 128 128">
  <rect x="4" y="4" width="120" height="120" rx="18" fill="#F4EAD7" stroke="#D8C7A8" stroke-width="2"/>
  <polygon points="64,118 18,98 64,78 110,98" fill="#E3D6BC"/>
  <ellipse cx="64" cy="100" rx="38" ry="11" fill="#000000" opacity="0.07"/>
  <polygon points="34,50 64,62 64,102 34,90" fill="#A38F73" stroke="#2B3A4A" stroke-width="3" stroke-linejoin="round"/>
  <polygon points="64,62 94,50 94,90 64,102" fill="#C7B59B" stroke="#2B3A4A" stroke-width="3" stroke-linejoin="round"/>
  <polygon points="64,38 94,50 64,62 34,50" fill="#E4D9C8" stroke="#2B3A4A" stroke-width="3" stroke-linejoin="round"/>
  <rect x="48" y="62" width="20" height="22" rx="2" fill="#8A99A8" stroke="#2B3A4A" stroke-width="2"/>
  <line x1="48" y1="67" x2="68" y2="67" stroke="#2B3A4A" stroke-width="1.5" opacity="0.5"/>
  <line x1="48" y1="72" x2="68" y2="72" stroke="#2B3A4A" stroke-width="1.5" opacity="0.5"/>
  <line x1="48" y1="77" x2="68" y2="77" stroke="#2B3A4A" stroke-width="1.5" opacity="0.5"/>
  <circle cx="64" cy="38" r="11" fill="#F2A12E" stroke="#2B3A4A" stroke-width="2.5"/>
  <g transform="rotate(-35 64 38)"><rect x="56" y="36" width="16" height="4.5" rx="2" fill="#FFFFFF" stroke="#2B3A4A" stroke-width="1.5"/><circle cx="70" cy="38.25" r="3.5" fill="none" stroke="#2B3A4A" stroke-width="1.5"/></g>

</svg>