<svg xmlns="http://www.w3.org/2000/svg" viewBox="0 0 128 128">
  <rect x="4" y="4" width="120" height="120" rx="18" fill="#F4EAD7" stroke="#D8C7A8" stroke-width="2"/>
  <polygon points="64,118 18,98 64,78 110,98" fill="#E3D6BC"/>
  <ellipse cx="64" cy="100" rx="38" ry="11" fill="#000000" opacity="0.07"/>
  <polygon points="34,50 64,62 64,104 34,92" fill="#74848F" stroke="#2B3A4A" stroke-width="3" stroke-linejoin="round"/>
  <polygon points="64,62 94,50 94,92 64,104" fill="#A6B4BD" stroke="#2B3A4A" stroke-width="3" stroke-linejoin="round"/>
  <polygon points="64,38 94,50 64,62 34,50" fill="#D9DEE2" stroke="#2B3A4A" stroke-width="3" stroke-linejoin="round"/>
  <rect x="48" y="64" width="12" height="18" rx="6" fill="#E0A823" stroke="#2B3A4A" stroke-width="2"/>
  <rect x="64" y="64" width="12" height="18" rx="6" fill="#F2C12E" stroke="#2B3A4A" stroke-width="2"/>
  <rect x="80" y="28" width="8" height="20" rx="2" fill="#8A99A8" stroke="#2B3A4A" stroke-width="2"/>
  <ellipse cx="84" cy="25" rx="7" ry="4" fill="#FFFFFF" opacity="0.55"/>

</svg>