<svg xmlns="http://www.w3.org/2000/svg" viewBox="0 0 128 128">
  <rect x="4" y="4" width="120" height="120" rx="18" fill="#F4EAD7" stroke="#D8C7A8" stroke-width="2"/>
  <polygon points="64,118 18,98 64,78 110,98" fill="#E3D6BC"/>
  <ellipse cx="64" cy="100" rx="38" ry="11" fill="#000000" opacity="0.07"/>
  <path d="M36 46 A28 10 0 0 0 64 56 V98 A28 10 0 0 1 36 88 Z" fill="#6A9BC3" stroke="#2B3A4A" stroke-width="3" stroke-linejoin="round"/>
  <path d="M92 46 A28 10 0 0 1 64 56 V98 A28 10 0 0 0 92 88 Z" fill="#9AC3E0" stroke="#2B3A4A" stroke-width="3" stroke-linejoin="round"/>
  <ellipse cx="64" cy="46" rx="28" ry="10" fill="#C7E2F2" stroke="#2B3A4A" stroke-width="3"/>
  <path d="M36 79 A28 10 0 0 0 64 89 V96 A28 10 0 0 1 36 86 Z" fill="#4A7BA6" opacity="0.95"/>
  <path d="M92 79 A28 10 0 0 1 64 89 V96 A28 10 0 0 0 92 86 Z" fill="#6A9BC3" opacity="0.95"/>
  <circle cx="100" cy="94" r="11" fill="#FFFFFF" stroke="#2B3A4A" stroke-width="2.5"/>
#5B8DBF  <path d="M93 96 L107 91 L107 94 L98 97 L107 100 L107 103 Z" fill="#FFFFFF" stroke="#2B3A4A" stroke-width="1.2" stroke-linejoin="round"/>

</svg>