<svg xmlns="http://www.w3.org/2000/svg" viewBox="0 0 128 128">
  <rect x="4" y="4" width="120" height="120" rx="18" fill="#F4EAD7" stroke="#D8C7A8" stroke-width="2"/>
  <polygon points="64,118 18,98 64,78 110,98" fill="#E3D6BC"/>
  <ellipse cx="64" cy="100" rx="38" ry="11" fill="#000000" opacity="0.07"/>
  <rect x="84" y="68" width="14" height="28" rx="7" fill="#5B8DBF" stroke="#2B3A4A" stroke-width="3"/>
  <path d="M40 92 V74 Q40 60 64 60 V92 Z" fill="#5B8DBF" stroke="#2B3A4A" stroke-width="3"/>
  <path d="M64 60 Q88 60 88 74 V92 H64 Z" fill="#79A6D6" stroke="#2B3A4A" stroke-width="3"/>
  <rect x="28" y="68" width="14" height="28" rx="7" fill="#79A6D6" stroke="#2B3A4A" stroke-width="3"/>
  <circle cx="64" cy="44" r="20" fill="#F0C7A0" stroke="#2B3A4A" stroke-width="3"/>
  <path d="M44 40 Q64 18 84 40 Q84 30 64 30 Q44 30 44 40 Z" fill="#E0A823" stroke="#2B3A4A" stroke-width="3"/>
  <path d="M64 30 Q84 30 84 40 L64 40 Z" fill="#F2C12E" stroke="#2B3A4A" stroke-width="3"/>
  <rect x="42" y="38" width="44" height="6" rx="3" fill="#F2C12E" stroke="#2B3A4A" stroke-width="3"/>
  <circle cx="57" cy="47" r="2.5" fill="#2B3A4A"/><circle cx="71" cy="47" r="2.5" fill="#2B3A4A"/>
  <circle cx="100" cy="94" r="11" fill="#FFFFFF" stroke="#2B3A4A" stroke-width="2.5"/>
#9AAAB8  <g transform="rotate(-35 100 94)"><rect x="92" y="92" width="20" height="6" rx="3" fill="#FFFFFF" stroke="#2B3A4A" stroke-width="1.3"/><circle cx="108" cy="95" r="4" fill="none" stroke="#2B3A4A" stroke-width="1.3"/></g>

</svg>