<svg xmlns="http://www.w3.org/2000/svg" viewBox="0 0 128 128">
  <rect x="4" y="4" width="120" height="120" rx="18" fill="#F4EAD7" stroke="#D8C7A8" stroke-width="2"/>
  <polygon points="64,118 18,98 64,78 110,98" fill="#E3D6BC"/>
  <ellipse cx="64" cy="100" rx="38" ry="11" fill="#000000" opacity="0.07"/>
  <rect x="84" y="68" width="14" height="28" rx="7" fill="#2E4A6B" stroke="#2B3A4A" stroke-width="3"/>
  <path d="M40 92 V74 Q40 60 64 60 V92 Z" fill="#2E4A6B" stroke="#2B3A4A" stroke-width="3"/>
  <path d="M64 60 Q88 60 88 74 V92 H64 Z" fill="#4A6E96" stroke="#2B3A4A" stroke-width="3"/>
  <rect x="28" y="68" width="14" height="28" rx="7" fill="#4A6E96" stroke="#2B3A4A" stroke-width="3"/>
  <circle cx="64" cy="44" r="20" fill="#F0C7A0" stroke="#2B3A4A" stroke-width="3"/>
  <path d="M44 40 Q64 20 84 40 Q84 28 64 26 Q44 28 44 40 Z" fill="#2E4A6B" stroke="#2B3A4A" stroke-width="3"/>
  <ellipse cx="64" cy="33" rx="21" ry="8" fill="#B6C8D6" stroke="#2B3A4A" stroke-width="3"/>
  <path d="M83 35 q11 -1 12 5 l-12 2 z" fill="#2E4A6B" stroke="#2B3A4A" stroke-width="2" stroke-linejoin="round"/>
  <circle cx="57" cy="47" r="2.5" fill="#2B3A4A"/><circle cx="71" cy="47" r="2.5" fill="#2B3A4A"/>
  <circle cx="100" cy="94" r="11" fill="#FFFFFF" stroke="#2B3A4A" stroke-width="2.5"/>
#5B8DBF  <path d="M93 96 L107 91 L107 94 L98 97 L107 100 L107 103 Z" fill="#FFFFFF" stroke="#2B3A4A" stroke-width="1.2" stroke-linejoin="round"/>

</svg>