<svg xmlns="http://www.w3.org/2000/svg" viewBox="0 0 128 128">
  <rect x="4" y="4" width="120" height="120" rx="18" fill="#F4EAD7" stroke="#D8C7A8" stroke-width="2"/>
  <polygon points="64,118 18,98 64,78 110,98" fill="#E3D6BC"/>
  <ellipse cx="64" cy="100" rx="38" ry="11" fill="#000000" opacity="0.07"/>
  <polygon points="38,50 64,61 64,107 38,96" fill="#7E8FA0" stroke="#2B3A4A" stroke-width="3" stroke-linejoin="round"/>
  <polygon points="64,61 90,50 90,96 64,107" fill="#AEBBC6" stroke="#2B3A4A" stroke-width="3" stroke-linejoin="round"/>
  <polygon points="64,39 90,50 64,61 38,50" fill="#D8E0E6" stroke="#2B3A4A" stroke-width="3" stroke-linejoin="round"/>
  <rect x="46" y="24" width="8" height="24" rx="2" fill="#8A99A8" stroke="#2B3A4A" stroke-width="2"/>
  <ellipse cx="50" cy="21" rx="7" ry="4" fill="#FFFFFF" opacity="0.55"/>
  <rect x="76" y="30" width="8" height="18" rx="2" fill="#8A99A8" stroke="#2B3A4A" stroke-width="2"/>
  <ellipse cx="80" cy="27" rx="7" ry="4" fill="#FFFFFF" opacity="0.55"/>
  <circle cx="64" cy="68" r="7" fill="#F2A05E" opacity="0.85"/>
  <circle cx="64" cy="68" r="3.5" fill="#E8833A"/>

</svg>