<svg xmlns="http://www.w3.org/2000/svg" viewBox="0 0 128 128">
  <rect x="4" y="4" width="120" height="120" rx="18" fill="#F4EAD7" stroke="#D8C7A8" stroke-width="2"/>
  <polygon points="64,118 18,98 64,78 110,98" fill="#E3D6BC"/>
  <ellipse cx="64" cy="100" rx="38" ry="11" fill="#000000" opacity="0.07"/>
  <path d="M36 46 A28 10 0 0 0 64 56 V98 A28 10 0 0 1 36 88 Z" fill="#8A78A8" stroke="#2B3A4A" stroke-width="3" stroke-linejoin="round"/>
  <path d="M92 46 A28 10 0 0 1 64 56 V98 A28 10 0 0 0 92 88 Z" fill="#BBA9D4" stroke="#2B3A4A" stroke-width="3" stroke-linejoin="round"/>
  <ellipse cx="64" cy="46" rx="28" ry="10" fill="#E6DEF0" stroke="#2B3A4A" stroke-width="3"/>
  <circle cx="100" cy="94" r="11" fill="#FFFFFF" stroke="#2B3A4A" stroke-width="2.5"/>
#9B86C2  <circle cx="97" cy="91" r="2" fill="#FFFFFF"/><circle cx="103" cy="91" r="2" fill="#FFFFFF"/><circle cx="100" cy="97" r="2" fill="#FFFFFF"/>
  <line x1="97" y1="91" x2="103" y2="91" stroke="#FFFFFF" stroke-width="1.3"/><line x1="97" y1="91" x2="100" y2="97" stroke="#FFFFFF" stroke-width="1.3"/><line x1="103" y1="91" x2="100" y2="97" stroke="#FFFFFF" stroke-width="1.3"/>

</svg>