<svg xmlns="http://www.w3.org/2000/svg" viewBox="0 0 128 128">
  <rect x="4" y="4" width="120" height="120" rx="18" fill="#F4EAD7" stroke="#D8C7A8" stroke-width="2"/>
  <polygon points="64,118 18,98 64,78 110,98" fill="#E3D6BC"/>
  <ellipse cx="64" cy="100" rx="38" ry="11" fill="#000000" opacity="0.07"/>
  <polygon points="32,70 64,82 64,96 32,84" fill="#3F6E40" stroke="#2B3A4A" stroke-width="3" stroke-linejoin="round"/>
  <polygon points="64,82 96,70 96,84 64,96" fill="#5C8A52" stroke="#2B3A4A" stroke-width="3" stroke-linejoin="round"/>
  <polygon points="64,58 96,70 64,82 32,70" fill="#7FA33A" stroke="#2B3A4A" stroke-width="3" stroke-linejoin="round"/>
  <g fill="#FFFFFF" stroke="#2B3A4A" stroke-width="1" stroke-linejoin="round">
    <path d="M64 62 l5 8 -4 0 0 5 -6 -3 z"/>
    <path d="M80 72 l-2 9 -3 -3 -4 3 1 -7 z"/>
    <path d="M48 72 l9 1 -2 4 4 2 -7 2 z"/>
  </g>
</svg>
