<svg xmlns="http://www.w3.org/2000/svg" viewBox="0 0 128 128">
  <rect x="4" y="4" width="120" height="120" rx="18" fill="#F4EAD7" stroke="#D8C7A8" stroke-width="2"/>
  <polygon points="64,118 18,98 64,78 110,98" fill="#E3D6BC"/>
  <ellipse cx="64" cy="100" rx="38" ry="11" fill="#000000" opacity="0.07"/>
  <rect x="58" y="38" width="12" height="14" fill="#EAF3F8" stroke="#2B3A4A" stroke-width="3"/>
  <path d="M58 52 L46 84 a6 6 0 0 0 6 8 h24 a6 6 0 0 0 6 -8 L70 52 Z" fill="#EAF3F8" stroke="#2B3A4A" stroke-width="3" stroke-linejoin="round"/>
  <path d="M50 78 a6 6 0 0 0 0 14 h28 a6 6 0 0 0 0 -14 Z" fill="#7FD1C8" opacity="0.9"/>
  <circle cx="58" cy="74" r="3" fill="#7FD1C8"/><circle cx="70" cy="70" r="2.5" fill="#7FD1C8"/><circle cx="64" cy="66" r="2" fill="#7FD1C8"/>
  <rect x="56" y="34" width="16" height="4" rx="1.5" fill="#C7DCE8" stroke="#2B3A4A" stroke-width="2.5"/>

</svg>