<svg xmlns="http://www.w3.org/2000/svg" viewBox="0 0 128 128">
  <rect x="4" y="4" width="120" height="120" rx="18" fill="#F4EAD7" stroke="#D8C7A8" stroke-width="2"/>
  <polygon points="64,118 18,98 64,78 110,98" fill="#E3D6BC"/>
  <ellipse cx="64" cy="100" rx="38" ry="11" fill="#000000" opacity="0.07"/>
  <circle cx="70" cy="48" r="20" fill="#F2C12E" stroke="#2B3A4A" stroke-width="3"/>
  <line x1="94.0" y1="48.0" x2="100.0" y2="48.0" stroke="#F2C12E" stroke-width="4" stroke-linecap="round"/>
  <line x1="87.0" y1="65.0" x2="91.2" y2="69.2" stroke="#F2C12E" stroke-width="4" stroke-linecap="round"/>
  <line x1="70.0" y1="72.0" x2="70.0" y2="78.0" stroke="#F2C12E" stroke-width="4" stroke-linecap="round"/>
  <line x1="53.0" y1="65.0" x2="48.8" y2="69.2" stroke="#F2C12E" stroke-width="4" stroke-linecap="round"/>
  <line x1="46.0" y1="48.0" x2="40.0" y2="48.0" stroke="#F2C12E" stroke-width="4" stroke-linecap="round"/>
  <line x1="53.0" y1="31.0" x2="48.8" y2="26.8" stroke="#F2C12E" stroke-width="4" stroke-linecap="round"/>
  <line x1="70.0" y1="24.0" x2="70.0" y2="18.0" stroke="#F2C12E" stroke-width="4" stroke-linecap="round"/>
  <line x1="87.0" y1="31.0" x2="91.2" y2="26.8" stroke="#F2C12E" stroke-width="4" stroke-linecap="round"/>
  <ellipse cx="56" cy="70" rx="28" ry="16" fill="#EAF3F8" stroke="#2B3A4A" stroke-width="3"/>
  <ellipse cx="42" cy="64" rx="16" ry="13" fill="#EAF3F8" stroke="#2B3A4A" stroke-width="3"/>

</svg>