<svg xmlns="http://www.w3.org/2000/svg" viewBox="0 0 128 128">
  <rect x="4" y="4" width="120" height="120" rx="18" fill="#F4EAD7" stroke="#D8C7A8" stroke-width="2"/>
  <polygon points="64,118 18,98 64,78 110,98" fill="#E3D6BC"/>
  <ellipse cx="64" cy="100" rx="38" ry="11" fill="#000000" opacity="0.07"/>
  <rect x="84" y="68" width="14" height="28" rx="7" fill="#C7D9E0" stroke="#2B3A4A" stroke-width="3"/>
  <path d="M40 92 V74 Q40 60 64 60 V92 Z" fill="#C7D9E0" stroke="#2B3A4A" stroke-width="3"/>
  <path d="M64 60 Q88 60 88 74 V92 H64 Z" fill="#E8F2F6" stroke="#2B3A4A" stroke-width="3"/>
  <rect x="28" y="68" width="14" height="28" rx="7" fill="#E8F2F6" stroke="#2B3A4A" stroke-width="3"/>
  <circle cx="64" cy="44" r="20" fill="#F0C7A0" stroke="#2B3A4A" stroke-width="3"/>
  <path d="M44 38 Q64 17 84 38 Q84 27 64 25 Q44 27 44 38 Z" fill="#5B4636" stroke="#2B3A4A" stroke-width="3"/>
  <rect x="47" y="41" width="34" height="9" rx="4.5" fill="#BFEAE3" stroke="#2B3A4A" stroke-width="2.5" opacity="0.9"/>
  <circle cx="57" cy="45.5" r="3.5" fill="#FFFFFF" stroke="#2B3A4A" stroke-width="1.5"/><circle cx="71" cy="45.5" r="3.5" fill="#FFFFFF" stroke="#2B3A4A" stroke-width="1.5"/>
  <circle cx="100" cy="94" r="11" fill="#FFFFFF" stroke="#2B3A4A" stroke-width="2.5"/>
#7FD1C8  <path d="M97 89 v-2 h6 v2 l2 5 a3.5 3.5 0 0 1 -3.5 3.5h-3 a3.5 3.5 0 0 1 -3.5 -3.5 z" fill="#FFFFFF" stroke="#2B3A4A" stroke-width="1.3"/>

</svg>