<svg xmlns="http://www.w3.org/2000/svg" viewBox="0 0 128 128">
  <rect x="4" y="4" width="120" height="120" rx="18" fill="#F4EAD7" stroke="#D8C7A8" stroke-width="2"/>
  <polygon points="64,118 18,98 64,78 110,98" fill="#E3D6BC"/>
  <ellipse cx="64" cy="100" rx="38" ry="11" fill="#000000" opacity="0.07"/>
  <rect x="84" y="68" width="14" height="28" rx="7" fill="#74848F" stroke="#2B3A4A" stroke-width="3"/>
  <path d="M40 92 V74 Q40 60 64 60 V92 Z" fill="#74848F" stroke="#2B3A4A" stroke-width="3"/>
  <path d="M64 60 Q88 60 88 74 V92 H64 Z" fill="#A6B4BD" stroke="#2B3A4A" stroke-width="3"/>
  <rect x="28" y="68" width="14" height="28" rx="7" fill="#A6B4BD" stroke="#2B3A4A" stroke-width="3"/>
  <circle cx="64" cy="44" r="20" fill="#F0C7A0" stroke="#2B3A4A" stroke-width="3"/>
  <path d="M44 40 Q64 18 84 40 Q84 30 64 30 Q44 30 44 40 Z" fill="#C9601F" stroke="#2B3A4A" stroke-width="3"/>
  <path d="M64 30 Q84 30 84 40 L64 40 Z" fill="#E8833A" stroke="#2B3A4A" stroke-width="3"/>
  <rect x="42" y="38" width="44" height="6" rx="3" fill="#E8833A" stroke="#2B3A4A" stroke-width="3"/>
  <circle cx="57" cy="47" r="2.5" fill="#2B3A4A"/><circle cx="71" cy="47" r="2.5" fill="#2B3A4A"/>
  <circle cx="100" cy="94" r="11" fill="#FFFFFF" stroke="#2B3A4A" stroke-width="2.5"/>
#F2A12E  <circle cx="100" cy="94" r="6" fill="none" stroke="#FFFFFF" stroke-width="2"/><rect x="99" y="86" width="2" height="3" fill="#FFFFFF" transform="rotate(0 100 94)"/><rect x="99" y="86" width="2" height="3" fill="#FFFFFF" transform="rotate(45 100 94)"/><rect x="99" y="86" width="2" height="3" fill="#FFFFFF" transform="rotate(90 100 94)"/><rect x="99" y="86" width="2" height="3" fill="#FFFFFF" transform="rotate(135 100 94)"/><rect x="99" y="86" width="2" height="3" fill="#FFFFFF" transform="rotate(180 100 94)"/><rect x="99" y="86" width="2" height="3" fill="#FFFFFF" transform="rotate(225 100 94)"/><rect x="99" y="86" width="2" height="3" fill="#FFFFFF" transform="rotate(270 100 94)"/><rect x="99" y="86" width="2" height="3" fill="#FFFFFF" transform="rotate(315 100 94)"/>

</svg>